<svg width="21" height="22" viewBox="0 0 21 22" fill="none" xmlns="http://www.w3.org/2000/svg">
<g clip-path="url(#clip0)">
<path d="M17.0662 20.2314C17.5375 20.2314 17.9196 19.8355 17.9196 19.3471C17.9196 18.8587 17.5375 18.4628 17.0662 18.4628C16.5949 18.4628 16.2129 18.8587 16.2129 19.3471C16.2129 19.8355 16.5949 20.2314 17.0662 20.2314Z" stroke="#0D1821" stroke-width="1.5" stroke-linecap="round" stroke-linejoin="round"/>
<path d="M7.67951 20.2314C8.15079 20.2314 8.53284 19.8355 8.53284 19.3471C8.53284 18.8587 8.15079 18.4628 7.67951 18.4628C7.20822 18.4628 6.82617 18.8587 6.82617 19.3471C6.82617 19.8355 7.20822 20.2314 7.67951 20.2314Z" stroke="#0D1821" stroke-width="1.5" stroke-linecap="round" stroke-linejoin="round"/>
<path d="M0.853516 1.66125H4.26685L6.55378 13.5019C6.63181 13.9091 6.84554 14.2748 7.15755 14.535C7.46956 14.7953 7.85998 14.9336 8.26045 14.9256H16.5548C16.9553 14.9336 17.3457 14.7953 17.6577 14.535C17.9698 14.2748 18.1835 13.9091 18.2615 13.5019L19.6268 6.08272H5.12018" stroke="#0D1821" stroke-width="1.5" stroke-linecap="round" stroke-linejoin="round"/>
</g>
<defs>
<clipPath id="clip0">
<rect width="20.48" height="21.223" fill="white" transform="translate(0 0.776978)"/>
</clipPath>
</defs>
</svg>
